<svg width="640" height="700" viewBox="0 0 640 700" fill="none" xmlns="http://www.w3.org/2000/svg">
  <rect width="640" height="700" rx="36" fill="#F4F7FF"/>
  <circle cx="418" cy="210" r="132" fill="#DDE6FF"/>
  <path d="M272 646C272 535.543 361.543 446 472 446H510C565.228 446 610 490.772 610 546V646H272Z" fill="#8AA0FF"/>
  <path d="M173 633C173 529.171 257.171 445 361 445H412C515.829 445 600 529.171 600 633V648H173V633Z" fill="#6BC2FF"/>
  <path d="M389 126C436.496 126 475 164.504 475 212V289C475 336.496 436.496 375 389 375C341.504 375 303 336.496 303 289V212C303 164.504 341.504 126 389 126Z" fill="#F7C9A9"/>
  <path d="M299 218C299 142.889 359.889 82 435 82C510.111 82 571 142.889 571 218V278H532V220C532 166.98 489.02 124 436 124C382.98 124 340 166.98 340 220V278H299V218Z" fill="#232B56"/>
  <path d="M266 676V495C266 461.863 292.863 435 326 435H361L392 498L426 435H462C495.137 435 522 461.863 522 495V676H266Z" fill="#FFFFFF"/>
  <path d="M350 435H438L395 517L350 435Z" fill="#EEF2FF"/>
  <rect x="286" y="520" width="216" height="156" rx="20" fill="#E8EEFF"/>
  <circle cx="127" cy="160" r="54" fill="#FFFFFF"/>
  <circle cx="112" cy="145" r="8" fill="#8AA0FF"/>
  <circle cx="145" cy="145" r="8" fill="#8AA0FF"/>
  <rect x="105" y="173" width="42" height="8" rx="4" fill="#8AA0FF"/>
</svg>
